<svg width="112" height="40" viewBox="0 0 112 40" fill="none" xmlns="http://www.w3.org/2000/svg">
<rect x="0.5" y="0.5" width="111" height="39" rx="5.5" fill="black"/>
<rect x="0.5" y="0.5" width="111" height="39" rx="5.5" stroke="url(#paint0_linear_50_102)"/>
<path d="M27.2667 14.1725C26.098 13.6247 24.8484 13.2267 23.5419 13C23.3814 13.2906 23.194 13.6814 23.0648 13.9923C21.6759 13.7831 20.2999 13.7831 18.9366 13.9923C18.8074 13.6814 18.6157 13.2906 18.4538 13C17.1459 13.2267 15.8948 13.6262 14.7261 14.1754C12.3688 17.7437 11.7297 21.2233 12.0493 24.6536C13.6128 25.8232 15.128 26.5336 16.6176 26.9986C16.9854 26.4915 17.3135 25.9525 17.5961 25.3844C17.0578 25.1795 16.5424 24.9267 16.0553 24.6333C16.1845 24.5374 16.3109 24.4371 16.433 24.334C19.4038 25.7258 22.6316 25.7258 25.5669 24.334C25.6905 24.4371 25.8168 24.5374 25.9447 24.6333C25.4561 24.9282 24.9393 25.181 24.4011 25.3859C24.6836 25.9525 25.0103 26.493 25.3795 27C26.8706 26.5351 28.3872 25.8246 29.9507 24.6536C30.3256 20.6771 29.3102 17.2294 27.2667 14.1725ZM18.0008 22.544C17.109 22.544 16.3776 21.7101 16.3776 20.6945C16.3776 19.6789 17.0934 18.8435 18.0008 18.8435C18.9082 18.8435 19.6395 19.6775 19.6239 20.6945C19.6253 21.7101 18.9082 22.544 18.0008 22.544ZM23.9992 22.544C23.1074 22.544 22.376 21.7101 22.376 20.6945C22.376 19.6789 23.0917 18.8435 23.9992 18.8435C24.9066 18.8435 25.6379 19.6775 25.6223 20.6945C25.6223 21.7101 24.9066 22.544 23.9992 22.544Z" fill="white"/>
<path d="M40.9654 17.056C40.6854 17.056 40.4474 17.0373 40.2514 17V15.6C40.4007 15.6373 40.5687 15.656 40.7554 15.656C41.0634 15.656 41.2921 15.5813 41.4414 15.432C41.5907 15.2733 41.6654 15.0353 41.6654 14.718V7.2H43.2054V14.676C43.2054 15.4787 43.0187 16.076 42.6454 16.468C42.2814 16.86 41.7214 17.056 40.9654 17.056ZM47.0325 17.14C46.2765 17.14 45.6978 16.9253 45.2965 16.496C44.8951 16.0667 44.6945 15.46 44.6945 14.676V9.524C44.6945 8.74 44.8951 8.13333 45.2965 7.704C45.6978 7.27467 46.2765 7.06 47.0325 7.06C47.7885 7.06 48.3671 7.27467 48.7685 7.704C49.1698 8.13333 49.3705 8.74 49.3705 9.524V14.676C49.3705 15.46 49.1698 16.0667 48.7685 16.496C48.3671 16.9253 47.7885 17.14 47.0325 17.14ZM47.0325 15.74C47.5645 15.74 47.8305 15.418 47.8305 14.774V9.426C47.8305 8.782 47.5645 8.46 47.0325 8.46C46.5005 8.46 46.2345 8.782 46.2345 9.426V14.774C46.2345 15.418 46.5005 15.74 47.0325 15.74ZM50.912 7.2H52.452V17H50.912V7.2ZM54.1053 7.2H56.0373L57.5353 13.066H57.5633V7.2H58.9353V17H57.3533L55.5053 9.846H55.4773V17H54.1053V7.2ZM41.8054 22.6H40.1954V21.2H44.9554V22.6H43.3454V31H41.8054V22.6ZM46.201 21.2H47.741V25.19H49.393V21.2H50.933V31H49.393V26.59H47.741V31H46.201V21.2ZM52.5799 21.2H56.7799V22.6H54.1199V25.19H56.2339V26.59H54.1199V29.6H56.7799V31H52.5799V21.2ZM60.908 21.2H63.26C64.0254 21.2 64.5994 21.4053 64.982 21.816C65.3647 22.2267 65.556 22.8287 65.556 23.622V28.578C65.556 29.3713 65.3647 29.9733 64.982 30.384C64.5994 30.7947 64.0254 31 63.26 31H60.908V21.2ZM63.232 29.6C63.484 29.6 63.6754 29.5253 63.806 29.376C63.946 29.2267 64.016 28.984 64.016 28.648V23.552C64.016 23.216 63.946 22.9733 63.806 22.824C63.6754 22.6747 63.484 22.6 63.232 22.6H62.448V29.6H63.232ZM67.0955 21.2H68.6355V31H67.0955V21.2ZM72.2909 31.14C71.5442 31.14 70.9796 30.93 70.5969 30.51C70.2142 30.0807 70.0229 29.4693 70.0229 28.676V28.116H71.4789V28.788C71.4789 29.4227 71.7449 29.74 72.2769 29.74C72.5382 29.74 72.7342 29.6653 72.8649 29.516C73.0049 29.3573 73.0749 29.1053 73.0749 28.76C73.0749 28.3493 72.9816 27.99 72.7949 27.682C72.6082 27.3647 72.2629 26.9867 71.7589 26.548C71.1242 25.988 70.6809 25.484 70.4289 25.036C70.1769 24.5787 70.0509 24.0653 70.0509 23.496C70.0509 22.7213 70.2469 22.124 70.6389 21.704C71.0309 21.2747 71.6002 21.06 72.3469 21.06C73.0842 21.06 73.6396 21.2747 74.0129 21.704C74.3956 22.124 74.5869 22.7307 74.5869 23.524V23.93H73.1309V23.426C73.1309 23.09 73.0656 22.8473 72.9349 22.698C72.8042 22.5393 72.6129 22.46 72.3609 22.46C71.8476 22.46 71.5909 22.7727 71.5909 23.398C71.5909 23.7527 71.6842 24.084 71.8709 24.392C72.0669 24.7 72.4169 25.0733 72.9209 25.512C73.5649 26.072 74.0082 26.5807 74.2509 27.038C74.4936 27.4953 74.6149 28.032 74.6149 28.648C74.6149 29.4507 74.4142 30.0667 74.0129 30.496C73.6209 30.9253 73.0469 31.14 72.2909 31.14ZM78.1679 31.14C77.4306 31.14 76.8659 30.93 76.4739 30.51C76.0912 30.09 75.8999 29.4973 75.8999 28.732V23.468C75.8999 22.7027 76.0912 22.11 76.4739 21.69C76.8659 21.27 77.4306 21.06 78.1679 21.06C78.9052 21.06 79.4652 21.27 79.8479 21.69C80.2399 22.11 80.4359 22.7027 80.4359 23.468V24.504H78.9799V23.37C78.9799 22.7633 78.7232 22.46 78.2099 22.46C77.6966 22.46 77.4399 22.7633 77.4399 23.37V28.844C77.4399 29.4413 77.6966 29.74 78.2099 29.74C78.7232 29.74 78.9799 29.4413 78.9799 28.844V27.346H80.4359V28.732C80.4359 29.4973 80.2399 30.09 79.8479 30.51C79.4652 30.93 78.9052 31.14 78.1679 31.14ZM84.1106 31.14C83.3546 31.14 82.7759 30.9253 82.3746 30.496C81.9733 30.0667 81.7726 29.46 81.7726 28.676V23.524C81.7726 22.74 81.9733 22.1333 82.3746 21.704C82.7759 21.2747 83.3546 21.06 84.1106 21.06C84.8666 21.06 85.4453 21.2747 85.8466 21.704C86.2479 22.1333 86.4486 22.74 86.4486 23.524V28.676C86.4486 29.46 86.2479 30.0667 85.8466 30.496C85.4453 30.9253 84.8666 31.14 84.1106 31.14ZM84.1106 29.74C84.6426 29.74 84.9086 29.418 84.9086 28.774V23.426C84.9086 22.782 84.6426 22.46 84.1106 22.46C83.5786 22.46 83.3126 22.782 83.3126 23.426V28.774C83.3126 29.418 83.5786 29.74 84.1106 29.74ZM87.9901 21.2H90.2721C91.0654 21.2 91.6441 21.3867 92.0081 21.76C92.3721 22.124 92.5541 22.6887 92.5541 23.454V24.056C92.5541 25.0733 92.2181 25.7173 91.5461 25.988V26.016C91.9194 26.128 92.1807 26.3567 92.3301 26.702C92.4887 27.0473 92.5681 27.5093 92.5681 28.088V29.81C92.5681 30.09 92.5774 30.3187 92.5961 30.496C92.6147 30.664 92.6614 30.832 92.7361 31H91.1681C91.1121 30.8413 91.0747 30.692 91.0561 30.552C91.0374 30.412 91.0281 30.16 91.0281 29.796V28.004C91.0281 27.556 90.9534 27.2433 90.8041 27.066C90.6641 26.8887 90.4167 26.8 90.0621 26.8H89.5301V31H87.9901V21.2ZM90.0901 25.4C90.3981 25.4 90.6267 25.3207 90.7761 25.162C90.9347 25.0033 91.0141 24.7373 91.0141 24.364V23.608C91.0141 23.2533 90.9487 22.9967 90.8181 22.838C90.6967 22.6793 90.5007 22.6 90.2301 22.6H89.5301V25.4H90.0901ZM94.1366 21.2H96.4886C97.2539 21.2 97.8279 21.4053 98.2106 21.816C98.5932 22.2267 98.7846 22.8287 98.7846 23.622V28.578C98.7846 29.3713 98.5932 29.9733 98.2106 30.384C97.8279 30.7947 97.2539 31 96.4886 31H94.1366V21.2ZM96.4606 29.6C96.7126 29.6 96.9039 29.5253 97.0346 29.376C97.1746 29.2267 97.2446 28.984 97.2446 28.648V23.552C97.2446 23.216 97.1746 22.9733 97.0346 22.824C96.9039 22.6747 96.7126 22.6 96.4606 22.6H95.6766V29.6H96.4606Z" fill="white"/>
<defs>
<linearGradient id="paint0_linear_50_102" x1="0" y1="0" x2="112" y2="40" gradientUnits="userSpaceOnUse">
<stop stop-color="#FE1E69"/>
<stop offset="1" stop-color="#924CD8"/>
</linearGradient>
</defs>
</svg>
