<svg width="112" height="40" viewBox="0 0 112 40" fill="none" xmlns="http://www.w3.org/2000/svg">
<rect x="0.5" y="0.5" width="111" height="39" rx="5.5" fill="black"/>
<rect x="0.5" y="0.5" width="111" height="39" rx="5.5" stroke="url(#paint0_linear_50_107)"/>
<mask id="mask0_50_107" style="mask-type:alpha" maskUnits="userSpaceOnUse" x="16" y="9" width="23" height="22">
<rect x="16.5" y="9" width="22" height="22" fill="#D9D9D9"/>
</mask>
<g mask="url(#mask0_50_107)">
<path d="M22.4583 27.3333C21.068 27.3333 19.8802 26.8521 18.8948 25.8896C17.9093 24.9271 17.4166 23.7507 17.4166 22.3604C17.4166 21.1687 17.7757 20.1069 18.4937 19.175C19.2118 18.2431 20.1513 17.6472 21.3125 17.3875C21.5722 16.2875 22.2215 15.241 23.2604 14.2479C24.2993 13.2549 25.4069 12.7583 26.5833 12.7583C27.0875 12.7583 27.5191 12.9378 27.8781 13.2969C28.2371 13.6559 28.4166 14.0875 28.4166 14.5917V20.1375L29.8833 18.7167L31.1666 20L27.5 23.6667L23.8333 20L25.1166 18.7167L26.5833 20.1375V14.5917C25.4222 14.8056 24.5208 15.367 23.8791 16.276C23.2375 17.1851 22.9166 18.1208 22.9166 19.0833H22.4583C21.5722 19.0833 20.8159 19.3965 20.1895 20.0229C19.5632 20.6493 19.25 21.4056 19.25 22.2917C19.25 23.1778 19.5632 23.934 20.1895 24.5604C20.8159 25.1868 21.5722 25.5 22.4583 25.5H33.4583C34.1 25.5 34.6423 25.2785 35.0854 24.8354C35.5284 24.3924 35.75 23.85 35.75 23.2083C35.75 22.5667 35.5284 22.0243 35.0854 21.5812C34.6423 21.1382 34.1 20.9167 33.4583 20.9167H32.0833V19.0833C32.0833 18.35 31.9152 17.6663 31.5791 17.0323C31.243 16.3983 30.8 15.8597 30.25 15.4167V13.2854C31.3805 13.8201 32.2743 14.6108 32.9312 15.6573C33.5882 16.7038 33.9166 17.8458 33.9166 19.0833C34.9708 19.2056 35.8454 19.6601 36.5406 20.4469C37.2357 21.2337 37.5833 22.1542 37.5833 23.2083C37.5833 24.3542 37.1823 25.3281 36.3802 26.1302C35.5781 26.9323 34.6041 27.3333 33.4583 27.3333H22.4583Z" fill="white"/>
</g>
<path d="M49.074 14.2H51.342C52.1073 14.2 52.6813 14.4053 53.064 14.816C53.4467 15.2267 53.638 15.8287 53.638 16.622V17.588C53.638 18.3813 53.4467 18.9833 53.064 19.394C52.6813 19.8047 52.1073 20.01 51.342 20.01H50.614V24H49.074V14.2ZM51.342 18.61C51.594 18.61 51.7807 18.54 51.902 18.4C52.0327 18.26 52.098 18.022 52.098 17.686V16.524C52.098 16.188 52.0327 15.95 51.902 15.81C51.7807 15.67 51.594 15.6 51.342 15.6H50.614V18.61H51.342ZM54.9744 14.2H57.2564C58.0497 14.2 58.6284 14.3867 58.9924 14.76C59.3564 15.124 59.5384 15.6887 59.5384 16.454V17.056C59.5384 18.0733 59.2024 18.7173 58.5304 18.988V19.016C58.9037 19.128 59.1651 19.3567 59.3144 19.702C59.4731 20.0473 59.5524 20.5093 59.5524 21.088V22.81C59.5524 23.09 59.5617 23.3187 59.5804 23.496C59.5991 23.664 59.6457 23.832 59.7204 24H58.1524C58.0964 23.8413 58.0591 23.692 58.0404 23.552C58.0217 23.412 58.0124 23.16 58.0124 22.796V21.004C58.0124 20.556 57.9377 20.2433 57.7884 20.066C57.6484 19.8887 57.4011 19.8 57.0464 19.8H56.5144V24H54.9744V14.2ZM57.0744 18.4C57.3824 18.4 57.6111 18.3207 57.7604 18.162C57.9191 18.0033 57.9984 17.7373 57.9984 17.364V16.608C57.9984 16.2533 57.9331 15.9967 57.8024 15.838C57.6811 15.6793 57.4851 15.6 57.2144 15.6H56.5144V18.4H57.0744ZM61.1209 14.2H65.3209V15.6H62.6609V18.19H64.7749V19.59H62.6609V22.6H65.3209V24H61.1209V14.2ZM68.7362 24.14C67.9895 24.14 67.4248 23.93 67.0422 23.51C66.6595 23.0807 66.4682 22.4693 66.4682 21.676V21.116H67.9242V21.788C67.9242 22.4227 68.1902 22.74 68.7222 22.74C68.9835 22.74 69.1795 22.6653 69.3102 22.516C69.4502 22.3573 69.5202 22.1053 69.5202 21.76C69.5202 21.3493 69.4268 20.99 69.2402 20.682C69.0535 20.3647 68.7082 19.9867 68.2042 19.548C67.5695 18.988 67.1262 18.484 66.8742 18.036C66.6222 17.5787 66.4962 17.0653 66.4962 16.496C66.4962 15.7213 66.6922 15.124 67.0842 14.704C67.4762 14.2747 68.0455 14.06 68.7922 14.06C69.5295 14.06 70.0848 14.2747 70.4582 14.704C70.8408 15.124 71.0322 15.7307 71.0322 16.524V16.93H69.5762V16.426C69.5762 16.09 69.5108 15.8473 69.3802 15.698C69.2495 15.5393 69.0582 15.46 68.8062 15.46C68.2928 15.46 68.0362 15.7727 68.0362 16.398C68.0362 16.7527 68.1295 17.084 68.3162 17.392C68.5122 17.7 68.8622 18.0733 69.3662 18.512C70.0102 19.072 70.4535 19.5807 70.6962 20.038C70.9388 20.4953 71.0602 21.032 71.0602 21.648C71.0602 22.4507 70.8595 23.0667 70.4582 23.496C70.0662 23.9253 69.4922 24.14 68.7362 24.14ZM74.4451 24.14C73.6985 24.14 73.1338 23.93 72.7511 23.51C72.3685 23.0807 72.1771 22.4693 72.1771 21.676V21.116H73.6331V21.788C73.6331 22.4227 73.8991 22.74 74.4311 22.74C74.6925 22.74 74.8885 22.6653 75.0191 22.516C75.1591 22.3573 75.2291 22.1053 75.2291 21.76C75.2291 21.3493 75.1358 20.99 74.9491 20.682C74.7625 20.3647 74.4171 19.9867 73.9131 19.548C73.2785 18.988 72.8351 18.484 72.5831 18.036C72.3311 17.5787 72.2051 17.0653 72.2051 16.496C72.2051 15.7213 72.4011 15.124 72.7931 14.704C73.1851 14.2747 73.7545 14.06 74.5011 14.06C75.2385 14.06 75.7938 14.2747 76.1671 14.704C76.5498 15.124 76.7411 15.7307 76.7411 16.524V16.93H75.2851V16.426C75.2851 16.09 75.2198 15.8473 75.0891 15.698C74.9585 15.5393 74.7671 15.46 74.5151 15.46C74.0018 15.46 73.7451 15.7727 73.7451 16.398C73.7451 16.7527 73.8385 17.084 74.0251 17.392C74.2211 17.7 74.5711 18.0733 75.0751 18.512C75.7191 19.072 76.1625 19.5807 76.4051 20.038C76.6478 20.4953 76.7691 21.032 76.7691 21.648C76.7691 22.4507 76.5685 23.0667 76.1671 23.496C75.7751 23.9253 75.2011 24.14 74.4451 24.14ZM80.8943 14.2H82.4343V18.33L84.3943 14.2H85.9343L84.1003 17.798L85.9623 24H84.3523L83.0503 19.632L82.4343 20.878V24H80.8943V14.2ZM87.1912 14.2H88.7312V24H87.1912V14.2ZM91.5885 15.6H89.9785V14.2H94.7385V15.6H93.1285V24H91.5885V15.6Z" fill="white"/>
<defs>
<linearGradient id="paint0_linear_50_107" x1="0" y1="0" x2="112" y2="40" gradientUnits="userSpaceOnUse">
<stop stop-color="#FE1E69"/>
<stop offset="1" stop-color="#924CD8"/>
</linearGradient>
</defs>
</svg>
