<svg width="112" height="40" viewBox="0 0 112 40" fill="none" xmlns="http://www.w3.org/2000/svg">
<rect x="0.5" y="0.5" width="111" height="39" rx="5.5" fill="black"/>
<rect x="0.5" y="0.5" width="111" height="39" rx="5.5" stroke="url(#paint0_linear_50_113)"/>
<path d="M39.8095 16.2798C39.122 16.1303 38.4995 15.7614 38.0327 15.2269C37.5658 14.6925 37.2791 14.0204 37.2143 13.3087V13H34.8427V22.5691C34.8412 22.9928 34.7093 23.4053 34.4653 23.7487C34.2213 24.0922 33.8777 24.3493 33.4826 24.4839C33.0875 24.6185 32.6609 24.6239 32.2626 24.4993C31.8644 24.3746 31.5146 24.1263 31.2623 23.7891C31.0062 23.4463 30.8641 23.0294 30.8566 22.5989C30.8492 22.1684 30.9768 21.7467 31.221 21.395C31.4652 21.0432 31.8132 20.7797 32.2146 20.6426C32.6161 20.5055 33.05 20.502 33.4535 20.6325V18.1828C32.5537 18.0563 31.6375 18.219 30.833 18.648C30.0286 19.0771 29.3761 19.751 28.967 20.5756C28.5578 21.4002 28.4124 22.3342 28.5511 23.2469C28.6897 24.1597 29.1055 25.0056 29.7403 25.6662C30.3456 26.296 31.1218 26.728 31.9698 26.9073C32.8177 27.0865 33.699 27.0047 34.501 26.6725C35.3031 26.3402 35.9895 25.7724 36.4728 25.0417C36.9561 24.311 37.2142 23.4504 37.2143 22.5698V17.6803C38.1727 18.3769 39.3218 18.7505 40.5 18.7483V16.3526C40.268 16.3529 40.0366 16.3285 39.8095 16.2798Z" fill="white"/>
<path d="M52.278 15.6H50.668V14.2H55.428V15.6H53.818V24H52.278V15.6ZM56.6736 14.2H58.2136V24H56.6736V14.2ZM59.867 14.2H61.407V18.33L63.367 14.2H64.907L63.073 17.798L64.935 24H63.325L62.023 19.632L61.407 20.878V24H59.867V14.2ZM67.3678 15.6H65.7578V14.2H70.5178V15.6H68.9078V24H67.3678V15.6ZM73.9348 24.14C73.1788 24.14 72.6001 23.9253 72.1988 23.496C71.7974 23.0667 71.5968 22.46 71.5968 21.676V16.524C71.5968 15.74 71.7974 15.1333 72.1988 14.704C72.6001 14.2747 73.1788 14.06 73.9348 14.06C74.6908 14.06 75.2694 14.2747 75.6708 14.704C76.0721 15.1333 76.2728 15.74 76.2728 16.524V21.676C76.2728 22.46 76.0721 23.0667 75.6708 23.496C75.2694 23.9253 74.6908 24.14 73.9348 24.14ZM73.9348 22.74C74.4668 22.74 74.7328 22.418 74.7328 21.774V16.426C74.7328 15.782 74.4668 15.46 73.9348 15.46C73.4028 15.46 73.1368 15.782 73.1368 16.426V21.774C73.1368 22.418 73.4028 22.74 73.9348 22.74ZM77.8142 14.2H79.3542V18.33L81.3142 14.2H82.8542L81.0202 17.798L82.8822 24H81.2722L79.9702 19.632L79.3542 20.878V24H77.8142V14.2Z" fill="white"/>
<defs>
<linearGradient id="paint0_linear_50_113" x1="-1.08991e-07" y1="1" x2="112" y2="40" gradientUnits="userSpaceOnUse">
<stop stop-color="#FE1E69"/>
<stop offset="1" stop-color="#924CD8"/>
</linearGradient>
</defs>
</svg>
