<svg width="112" height="40" viewBox="0 0 112 40" fill="none" xmlns="http://www.w3.org/2000/svg">
<rect x="0.5" y="0.5" width="111" height="39" rx="5.5" fill="black"/>
<rect x="0.5" y="0.5" width="111" height="39" rx="5.5" stroke="url(#paint0_linear_50_117)"/>
<path d="M40.6555 14.2018C39.9387 13.3482 38.6151 13 36.0875 13H26.9122C24.3267 13 22.9808 13.3707 22.2666 14.2794C21.5703 15.1655 21.5703 16.4711 21.5703 18.278V21.722C21.5703 25.2226 22.3965 27 26.9122 27H36.0876C38.2795 27 39.4941 26.6927 40.2799 25.9394C41.0858 25.1669 41.4296 23.9057 41.4296 21.722V18.278C41.4296 16.3725 41.3757 15.0592 40.6555 14.2018ZM34.32 20.4755L30.1536 22.6568C30.0604 22.7055 29.9585 22.7297 29.8568 22.7297C29.7416 22.7297 29.6267 22.6987 29.5249 22.6369C29.3332 22.5206 29.2162 22.3125 29.2162 22.088V17.7395C29.2162 17.5154 29.3329 17.3075 29.5242 17.1911C29.7156 17.0747 29.9536 17.0667 30.1521 17.17L34.3186 19.3372C34.5305 19.4475 34.6637 19.6667 34.664 19.9059C34.6642 20.1452 34.5317 20.3647 34.32 20.4755Z" fill="white"/>
<path d="M51.4176 19.828L49.5556 14.2H51.1936L52.2436 17.798H52.2716L53.3216 14.2H54.8196L52.9576 19.828V24H51.4176V19.828ZM57.9932 24.14C57.2372 24.14 56.6586 23.9253 56.2572 23.496C55.8559 23.0667 55.6552 22.46 55.6552 21.676V16.524C55.6552 15.74 55.8559 15.1333 56.2572 14.704C56.6586 14.2747 57.2372 14.06 57.9932 14.06C58.7492 14.06 59.3279 14.2747 59.7292 14.704C60.1306 15.1333 60.3312 15.74 60.3312 16.524V21.676C60.3312 22.46 60.1306 23.0667 59.7292 23.496C59.3279 23.9253 58.7492 24.14 57.9932 24.14ZM57.9932 22.74C58.5252 22.74 58.7912 22.418 58.7912 21.774V16.426C58.7912 15.782 58.5252 15.46 57.9932 15.46C57.4612 15.46 57.1952 15.782 57.1952 16.426V21.774C57.1952 22.418 57.4612 22.74 57.9932 22.74ZM64.1127 24.14C63.366 24.14 62.7967 23.93 62.4047 23.51C62.0127 23.0807 61.8167 22.4693 61.8167 21.676V14.2H63.3567V21.788C63.3567 22.124 63.422 22.3667 63.5527 22.516C63.6927 22.6653 63.8887 22.74 64.1407 22.74C64.3927 22.74 64.584 22.6653 64.7147 22.516C64.8547 22.3667 64.9247 22.124 64.9247 21.788V14.2H66.4087V21.676C66.4087 22.4693 66.2127 23.0807 65.8207 23.51C65.4287 23.93 64.8594 24.14 64.1127 24.14ZM69.2095 15.6H67.5995V14.2H72.3595V15.6H70.7495V24H69.2095V15.6ZM75.8451 24.14C75.0985 24.14 74.5291 23.93 74.1371 23.51C73.7451 23.0807 73.5491 22.4693 73.5491 21.676V14.2H75.0891V21.788C75.0891 22.124 75.1545 22.3667 75.2851 22.516C75.4251 22.6653 75.6211 22.74 75.8731 22.74C76.1251 22.74 76.3165 22.6653 76.4471 22.516C76.5871 22.3667 76.6571 22.124 76.6571 21.788V14.2H78.1411V21.676C78.1411 22.4693 77.9451 23.0807 77.5531 23.51C77.1611 23.93 76.5918 24.14 75.8451 24.14ZM79.7379 14.2H82.0619C82.8553 14.2 83.4339 14.3867 83.7979 14.76C84.1619 15.124 84.3439 15.6887 84.3439 16.454V16.846C84.3439 17.35 84.2599 17.7607 84.0919 18.078C83.9333 18.3953 83.6859 18.624 83.3499 18.764V18.792C84.1153 19.0533 84.4979 19.7347 84.4979 20.836V21.676C84.4979 22.432 84.2973 23.0107 83.8959 23.412C83.5039 23.804 82.9253 24 82.1599 24H79.7379V14.2ZM81.8799 18.19C82.1879 18.19 82.4166 18.1107 82.5659 17.952C82.7246 17.7933 82.8039 17.5273 82.8039 17.154V16.608C82.8039 16.2533 82.7386 15.9967 82.6079 15.838C82.4866 15.6793 82.2906 15.6 82.0199 15.6H81.2779V18.19H81.8799ZM82.1599 22.6C82.4306 22.6 82.6313 22.53 82.7619 22.39C82.8926 22.2407 82.9579 21.9887 82.9579 21.634V20.78C82.9579 20.332 82.8786 20.024 82.7199 19.856C82.5706 19.6787 82.3186 19.59 81.9639 19.59H81.2779V22.6H82.1599ZM85.8981 14.2H90.0981V15.6H87.4381V18.19H89.5521V19.59H87.4381V22.6H90.0981V24H85.8981V14.2Z" fill="white"/>
<defs>
<linearGradient id="paint0_linear_50_117" x1="0" y1="0" x2="112" y2="40" gradientUnits="userSpaceOnUse">
<stop stop-color="#FE1E69"/>
<stop offset="1" stop-color="#924CD8"/>
</linearGradient>
</defs>
</svg>
