<svg width="20" height="14" viewBox="0 0 20 14" fill="none" xmlns="http://www.w3.org/2000/svg">
<path d="M16.2667 1.1725C15.098 0.62475 13.8484 0.22667 12.5419 0C12.3814 0.290583 12.194 0.681424 12.0648 0.992336C10.6759 0.783119 9.29989 0.783119 7.93661 0.992336C7.80739 0.681424 7.61568 0.290583 7.4538 0C6.14591 0.22667 4.89482 0.626213 3.7261 1.1754C1.36878 4.74369 0.729749 8.22334 1.04927 11.6536C2.61276 12.8232 4.12798 13.5336 5.61763 13.9986C5.98543 13.4915 6.31346 12.9525 6.59605 12.3844C6.05785 12.1795 5.54237 11.9267 5.0553 11.6333C5.18451 11.5374 5.31091 11.4371 5.43302 11.334C8.40381 12.7258 11.6316 12.7258 14.5669 11.334C14.6905 11.4371 14.8168 11.5374 14.9447 11.6333C14.4561 11.9282 13.9393 12.181 13.4011 12.3859C13.6836 12.9525 14.0103 13.493 14.3795 14C15.8706 13.5351 17.3872 12.8246 18.9507 11.6536C19.3256 7.67706 18.3102 4.22936 16.2667 1.1725ZM7.00078 9.54402C6.10898 9.54402 5.37763 8.71006 5.37763 7.69449C5.37763 6.67892 6.09337 5.84352 7.00078 5.84352C7.90822 5.84352 8.63954 6.67746 8.62393 7.69449C8.62534 8.71006 7.90822 9.54402 7.00078 9.54402ZM12.9992 9.54402C12.1074 9.54402 11.376 8.71006 11.376 7.69449C11.376 6.67892 12.0917 5.84352 12.9992 5.84352C13.9066 5.84352 14.6379 6.67746 14.6223 7.69449C14.6223 8.71006 13.9066 9.54402 12.9992 9.54402Z" fill="white"/>
</svg>
