<svg width="14" height="25" viewBox="0 0 14 25" fill="none" xmlns="http://www.w3.org/2000/svg">
<path d="M1.33474 13.197H3.96105V24.0275C3.96105 24.2413 4.13402 24.4146 4.34749 24.4146H8.8005C9.01397 24.4146 9.18694 24.2413 9.18694 24.0275V13.248H12.2061C12.4024 13.248 12.5676 13.1004 12.59 12.9051L13.0485 8.91783C13.0611 8.80812 13.0264 8.69827 12.9532 8.61597C12.8798 8.5336 12.7749 8.48645 12.6647 8.48645H9.18709V5.98704C9.18709 5.2336 9.59208 4.85153 10.3909 4.85153C10.5048 4.85153 12.6647 4.85153 12.6647 4.85153C12.8782 4.85153 13.0512 4.67819 13.0512 4.46443V0.804512C13.0512 0.59068 12.8782 0.417415 12.6647 0.417415H9.5311C9.50899 0.416331 9.45992 0.414551 9.38758 0.414551C8.84386 0.414551 6.95394 0.521467 5.46105 1.89721C3.80694 3.42175 4.03687 5.24714 4.09182 5.56363V8.48637H1.33474C1.12127 8.48637 0.948303 8.65963 0.948303 8.87347V12.8098C0.948303 13.0236 1.12127 13.197 1.33474 13.197Z" fill="white"/>
</svg>
