<svg width="25" height="25" viewBox="0 0 25 25" fill="none" xmlns="http://www.w3.org/2000/svg">
<path fill-rule="evenodd" clip-rule="evenodd" d="M7.09474 0.541569C5.14128 0.629859 3.44812 1.10827 2.08094 2.472C0.708981 3.8429 0.237317 5.54565 0.148958 7.48209C0.0940311 8.69072 -0.22715 17.8217 0.704207 20.2162C1.33227 21.8317 2.56928 23.0738 4.19676 23.705C4.95617 24.0009 5.82308 24.2012 7.09474 24.2596C17.7277 24.7417 21.6692 24.4792 23.3314 20.2162C23.6263 19.4574 23.8293 18.5898 23.8854 17.3191C24.3714 6.64072 23.8066 4.32611 21.9535 2.472C20.4836 1.00327 18.7546 0.00347364 7.09474 0.541569ZM7.19262 22.112C6.02843 22.0595 5.39679 21.8652 4.97529 21.7018C3.91498 21.289 3.11855 20.4945 2.70899 19.4386C1.99973 17.619 2.23497 8.97727 2.29825 7.57893C2.36034 6.20922 2.63735 4.95741 3.60214 3.99099C4.79619 2.79787 6.33888 2.21313 16.8429 2.68799C18.2137 2.75003 19.4662 3.02695 20.4334 3.99099C21.6275 5.1841 22.2197 6.74132 21.7373 17.2229C21.6848 18.3862 21.4902 19.0174 21.3266 19.4386C20.246 22.2126 17.7599 22.5976 7.19262 22.112ZM16.9587 6.03118C16.9587 6.82103 17.6 7.4633 18.3916 7.4633C19.1833 7.4633 19.8257 6.82103 19.8257 6.03118C19.8257 5.24134 19.1833 4.59964 18.3916 4.59964C17.6 4.59964 16.9587 5.24134 16.9587 6.03118ZM5.88635 12.4C5.88635 15.7837 8.63147 18.527 12.0178 18.527C15.4041 18.527 18.1492 15.7837 18.1492 12.4C18.1492 9.01634 15.4041 6.27476 12.0178 6.27476C8.63147 6.27476 5.88635 9.01634 5.88635 12.4ZM8.03802 12.4C8.03802 10.2047 9.81955 8.42353 12.0178 8.42353C14.216 8.42353 15.9975 10.2047 15.9975 12.4C15.9975 14.5966 14.216 16.3783 12.0178 16.3783C9.81955 16.3783 8.03802 14.5966 8.03802 12.4Z" fill="white"/>
</svg>
