<svg width="23" height="22" viewBox="0 0 23 22" fill="none" xmlns="http://www.w3.org/2000/svg">
<mask id="mask0_50_109" style="mask-type:alpha" maskUnits="userSpaceOnUse" x="0" y="0" width="23" height="22">
<rect x="0.5" width="22" height="22" fill="#D9D9D9"/>
</mask>
<g mask="url(#mask0_50_109)">
<path d="M6.45829 18.3333C5.06802 18.3333 3.88017 17.8521 2.89475 16.8896C1.90933 15.9271 1.41663 14.7507 1.41663 13.3604C1.41663 12.1687 1.77565 11.1069 2.49371 10.175C3.21177 9.24305 4.15135 8.64722 5.31246 8.3875C5.57218 7.2875 6.22149 6.24097 7.26038 5.24791C8.29927 4.25486 9.4069 3.75833 10.5833 3.75833C11.0875 3.75833 11.5191 3.93785 11.8781 4.29687C12.2371 4.6559 12.4166 5.0875 12.4166 5.59166V11.1375L13.8833 9.71667L15.1666 11L11.5 14.6667L7.83329 11L9.11663 9.71667L10.5833 11.1375V5.59166C9.42218 5.80555 8.52079 6.36701 7.87913 7.27604C7.23746 8.18507 6.91663 9.12083 6.91663 10.0833H6.45829C5.57218 10.0833 4.81593 10.3965 4.18954 11.0229C3.56315 11.6493 3.24996 12.4056 3.24996 13.2917C3.24996 14.1778 3.56315 14.934 4.18954 15.5604C4.81593 16.1868 5.57218 16.5 6.45829 16.5H17.4583C18.1 16.5 18.6423 16.2785 19.0854 15.8354C19.5284 15.3924 19.75 14.85 19.75 14.2083C19.75 13.5667 19.5284 13.0243 19.0854 12.5812C18.6423 12.1382 18.1 11.9167 17.4583 11.9167H16.0833V10.0833C16.0833 9.35 15.9152 8.66632 15.5791 8.03229C15.243 7.39826 14.8 6.85972 14.25 6.41666V4.28541C15.3805 4.82014 16.2743 5.61076 16.9312 6.65729C17.5882 7.70382 17.9166 8.84583 17.9166 10.0833C18.9708 10.2056 19.8454 10.6601 20.5406 11.4469C21.2357 12.2337 21.5833 13.1542 21.5833 14.2083C21.5833 15.3542 21.1823 16.3281 20.3802 17.1302C19.5781 17.9323 18.6041 18.3333 17.4583 18.3333H6.45829Z" fill="white"/>
</g>
</svg>
