<svg width="25" height="25" viewBox="0 0 25 25" fill="none" xmlns="http://www.w3.org/2000/svg">
<path d="M12.0514 0.414551C5.42397 0.414551 0.0511475 5.78723 0.0511475 12.4146C0.0511475 19.0423 5.42397 24.4146 12.0514 24.4146C18.6795 24.4146 24.0517 19.0423 24.0517 12.4146C24.0517 5.78766 18.6795 0.415124 12.0512 0.415124L12.0514 0.414551ZM17.5546 17.7221C17.5034 17.806 17.4361 17.879 17.3567 17.9369C17.2772 17.9948 17.1871 18.0364 17.0916 18.0594C16.996 18.0825 16.8968 18.0864 16.7997 18.0711C16.7026 18.0557 16.6095 18.0214 16.5257 17.97C13.7082 16.249 10.1613 15.8592 5.98412 16.8136C5.7907 16.8576 5.58773 16.823 5.41982 16.7174C5.2519 16.6118 5.13279 16.4438 5.08865 16.2504C5.06667 16.1547 5.06379 16.0555 5.08017 15.9587C5.09656 15.8618 5.1319 15.7691 5.18415 15.6859C5.23641 15.6027 5.30457 15.5307 5.38472 15.4738C5.46487 15.417 5.55544 15.3766 5.65124 15.3548C10.2224 14.3105 14.1435 14.7601 17.3067 16.6932C17.6592 16.9096 17.771 17.3696 17.5546 17.7221ZM19.0234 14.4546C18.7526 14.8948 18.1765 15.0338 17.7366 14.763C14.5109 12.7803 9.59394 12.2061 5.77863 13.3643C5.28382 13.5137 4.76121 13.2349 4.61104 12.7409C4.53938 12.5034 4.56482 12.2472 4.68178 12.0285C4.79874 11.8098 4.99767 11.6463 5.23496 11.574C9.59308 10.2517 15.011 10.8922 18.7153 13.1685C19.1552 13.4393 19.2942 14.0153 19.0234 14.4546ZM19.1495 11.0521C15.2819 8.75493 8.90081 8.54371 5.20816 9.66444C4.61519 9.84428 3.98812 9.50954 3.80842 8.91657C3.72202 8.63169 3.75229 8.32415 3.89259 8.06158C4.03289 7.79901 4.27173 7.60291 4.55658 7.51641C8.79549 6.22959 15.8422 6.47821 20.295 9.12163C20.4219 9.19671 20.5328 9.29608 20.6212 9.41406C20.7097 9.53204 20.774 9.66631 20.8104 9.80918C20.8469 9.95205 20.8548 10.1007 20.8338 10.2466C20.8127 10.3926 20.763 10.5329 20.6877 10.6596C20.3724 11.193 19.6817 11.3688 19.1501 11.0521H19.1495Z" fill="white"/>
</svg>
