<svg width="13" height="14" viewBox="0 0 13 14" fill="none" xmlns="http://www.w3.org/2000/svg">
<path d="M11.8095 3.27977C11.122 3.13025 10.4995 2.76138 10.0327 2.22694C9.56582 1.69249 9.27909 1.0204 9.21426 0.30866V0H6.84271V9.56915C6.84125 9.99278 6.70926 10.4053 6.4653 10.7487C6.22135 11.0922 5.87768 11.3493 5.4826 11.4839C5.08752 11.6185 4.66089 11.6239 4.26265 11.4993C3.86441 11.3746 3.51459 11.1263 3.26234 10.7891C3.00617 10.4463 2.86407 10.0294 2.85664 9.59891C2.84921 9.16843 2.97683 8.74674 3.22101 8.39499C3.46519 8.04323 3.81322 7.77969 4.21464 7.64259C4.61606 7.50549 5.04999 7.50196 5.45352 7.6325V5.18282C4.55368 5.05635 3.63746 5.219 2.83302 5.64803C2.02857 6.07705 1.37614 6.751 0.966984 7.57559C0.557825 8.40018 0.412402 9.33418 0.551055 10.2469C0.689709 11.1597 1.1055 12.0056 1.74028 12.6662C2.34563 13.296 3.12182 13.728 3.96978 13.9073C4.81773 14.0865 5.69898 14.0047 6.50103 13.6725C7.30308 13.3402 7.98955 12.7724 8.47281 12.0417C8.95607 11.311 9.21421 10.4504 9.21426 9.56985V4.68029C10.1727 5.37693 11.3218 5.75048 12.5 5.74835V3.35256C12.268 3.35285 12.0366 3.32846 11.8095 3.27977Z" fill="white"/>
</svg>
