<svg width="25" height="18" viewBox="0 0 25 18" fill="none" xmlns="http://www.w3.org/2000/svg">
<path d="M23.1157 2.40734C22.2494 1.37575 20.6499 0.954956 17.5952 0.954956H6.50684C3.38227 0.954956 1.75569 1.40289 0.892618 2.50117C0.0511475 3.572 0.0511475 5.14978 0.0511475 7.33347V11.4956C0.0511475 15.7261 1.04955 17.874 6.50684 17.874H17.5953C20.2443 17.874 21.7122 17.5027 22.6618 16.5923C23.6356 15.6588 24.0511 14.1345 24.0511 11.4956V7.33347C24.0511 5.03058 23.986 3.4435 23.1157 2.40734ZM15.4592 9.98913L10.424 12.6252C10.3115 12.6841 10.1884 12.7134 10.0654 12.7134C9.92622 12.7134 9.78733 12.6758 9.66431 12.6012C9.43267 12.4606 9.29122 12.2091 9.29122 11.9378V6.68266C9.29122 6.41185 9.43228 6.16058 9.66346 6.01991C9.89471 5.87923 10.1823 5.86961 10.4222 5.99447L15.4574 8.61353C15.7136 8.74676 15.8745 9.01168 15.8749 9.30071C15.8752 9.58998 15.715 9.85528 15.4592 9.98913Z" fill="white"/>
</svg>
